<svg xmlns="http://www.w3.org/2000/svg" width="24" height="24" viewBox="0 0 24 24">
    <g fill="none" fill-rule="evenodd">
        <g fill="#000">
            <path fill-rule="nonzero" d="M6.89 13.403c-.548.067-.938.566-.871 1.114.067.548.566.938 1.114.87.548-.066.938-.565.871-1.113-.067-.548-.566-.938-1.114-.871zM3.548 10.79c-.067-.55.323-1.048.871-1.115.549-.067 1.047.323 1.114.871.067.549-.323 1.047-.87 1.114-.55.067-1.048-.323-1.115-.87zM5.919 5.462c-.548.067-.938.566-.871 1.114.067.548.566.938 1.114.871.548-.067.938-.566.87-1.114-.066-.548-.565-.938-1.113-.871zM13.697 7.281c-.067-.548.323-1.047.872-1.114.548-.067 1.046.323 1.113.871.067.549-.322 1.047-.87 1.114-.549.067-1.048-.323-1.115-.87zM9.993 8.879c-.549.067-.939.565-.872 1.114.067.548.566.938 1.114.87.549-.066.939-.565.872-1.113-.067-.548-.566-.938-1.114-.871zM9.393 5.037c-.067-.548.323-1.047.871-1.114.549-.067 1.047.323 1.114.871.067.548-.323 1.047-.87 1.114-.55.067-1.048-.323-1.115-.871z" transform="translate(2 2)"/>
            <path d="M.253 9.764C.383 4.38 4.853.122 10.236.253c5.383.13 9.642 4.6 9.511 9.983-.008.341-.123.653-.334.91-.202.244-.463.405-.721.513-.502.21-1.131.275-1.754.28-2.689.018-5.024 2.33-5.177 5.058-.035.636-.144 1.283-.418 1.792-.142.263-.34.514-.62.695-.285.186-.613.271-.96.263-5.382-.13-9.64-4.6-9.51-9.983zM10.2 1.752C5.645 1.642 1.863 5.245 1.752 9.8c-.11 4.555 3.493 8.337 8.048 8.448.068.001.093-.013.106-.021.019-.013.063-.05.117-.15.117-.217.21-.601.24-1.164.195-3.475 3.142-6.45 6.665-6.475.562-.003.956-.067 1.186-.163.081-.034.12-.063.134-.076.11-4.555-3.493-8.336-8.048-8.447z" transform="translate(2 2)"/>
        </g>
    </g>
</svg>
