<svg xmlns="http://www.w3.org/2000/svg" width="24" height="24" viewBox="0 0 24 24">
    <g fill="none" fill-rule="evenodd">
        <g fill="#000" fill-rule="nonzero">
            <g>
                <path d="M2 .5C1.172.5.5 1.172.5 2S1.172 3.5 2 3.5 3.5 2.828 3.5 2 2.828.5 2 .5zM6.5 2c0-.828.672-1.5 1.5-1.5s1.5.672 1.5 1.5S8.828 3.5 8 3.5 6.5 2.828 6.5 2zM12.5 2c0-.828.672-1.5 1.5-1.5s1.5.672 1.5 1.5-.672 1.5-1.5 1.5-1.5-.672-1.5-1.5z" transform="translate(4 10)"/>
            </g>
        </g>
    </g>
</svg>
