<svg xmlns="http://www.w3.org/2000/svg" width="24" height="24" viewBox="0 0 24 24">
    <g fill="none" fill-rule="evenodd">
        <g fill="#000">
            <path d="M2.94.512c1.558-.177 3.133-.177 4.692 0l1.596.182c.228.026.432.155.553.35.12.197.145.437.066.653L7.645 7.713H10c.246 0 .476.121.617.323.14.203.172.46.085.691l-.19.507c-1.322 3.52-3.19 6.808-5.535 9.745l-.391.49c-.199.248-.533.344-.834.239-.3-.105-.502-.39-.502-.708v-7.152H1.429c-.389 0-.713-.297-.747-.684L.559 9.782C.35 7.444.35 5.092.559 2.755l.123-1.382c.031-.355.308-.639.662-.68l1.595-.18zm4.523 1.49c-1.447-.164-2.908-.164-4.354 0l-.987.113-.069.772c-.2 2.25-.2 4.513 0 6.762l.062.699H4c.414 0 .75.335.75.75v5.704c1.702-2.342 3.101-4.892 4.163-7.589H6.57c-.244 0-.474-.12-.614-.32s-.174-.457-.09-.687l2.244-6.13-.648-.073z" transform="translate(7 2)"/>
        </g>
    </g>
</svg>
