<svg xmlns="http://www.w3.org/2000/svg" width="24" height="24" viewBox="0 0 24 24">
    <g fill="none" fill-rule="evenodd">
        <g fill="#000">
            <path d="M17.483 16.79v-.002l.018-.043L20.5 1.625v-.048c0-.377-.14-.706-.442-.903-.265-.173-.57-.185-.784-.169-.226.017-.439.074-.586.12-.076.025-.14.048-.185.066l-.055.022-.013.005-16.72 6.56H1.71l-.035.014c-.029.011-.068.027-.114.048-.09.041-.215.104-.341.19-.215.148-.624.496-.555 1.048.057.458.372.748.585.899.114.08.223.139.303.177.04.019.074.034.1.044l.032.013.01.004.007.002 2.926.985c-.01.183.008.37.057.555l1.465 5.559c.174.659.77 1.118 1.451 1.117.611 0 1.153-.37 1.383-.921l2.288-2.446 3.929 3.012.056.024c.357.156.69.206.995.164.305-.042.547-.17.729-.315.178-.143.3-.305.378-.426.04-.062.068-.116.089-.157l.024-.051.007-.018.003-.006.001-.003zM6.135 10.875c-.033-.127.019-.26.13-.33l9.921-6.3s.584-.355.563 0c0 0 .104.062-.209.353-.296.278-7.071 6.819-7.757 7.48-.04.039-.063.083-.077.136L7.6 16.434l-1.465-5.56z" transform="translate(1 3)"/>
        </g>
    </g>
</svg>
