<svg xmlns="http://www.w3.org/2000/svg" width="24" height="24" viewBox="0 0 24 24">
    <g fill="none" fill-rule="evenodd">
        <g fill="#000" fill-rule="nonzero">
            <g>
                <path d="M3.53 1.53c.293-.293.293-.767 0-1.06-.293-.293-.767-.293-1.06 0l-2 2c-.293.293-.293.767 0 1.06l2 2c.293.293.767.293 1.06 0 .293-.293.293-.767 0-1.06l-.72-.72H13c.414 0 .75-.336.75-.75s-.336-.75-.75-.75H2.81l.72-.72zM12.47 8.47c-.293.293-.293.767 0 1.06l.72.72H3c-.414 0-.75.336-.75.75s.336.75.75.75h10.19l-.72.72c-.293.293-.293.767 0 1.06.293.293.767.293 1.06 0l2-2c.293-.293.293-.767 0-1.06l-2-2c-.293-.293-.767-.293-1.06 0z" transform="translate(4 5)"/>
            </g>
        </g>
    </g>
</svg>
